<?xml version="1.0" encoding="UTF-8"?>
<svg version="1.1" xmlns="http://www.w3.org/2000/svg" width="1024" height="1024">
<path d="M0 0 C337.92 0 675.84 0 1024 0 C1024 337.92 1024 675.84 1024 1024 C686.08 1024 348.16 1024 0 1024 C0 686.08 0 348.16 0 0 Z " fill="#FEFEFE" transform="translate(0,0)"/>
<path d="M0 0 C15.65005617 7.26534322 33.19253158 9.85646424 50.05859375 4.75 C54.75473872 2.9783614 59.36118834 1.04486041 63.94140625 -1.0078125 C66.875 -2.3125 66.875 -2.3125 69.875 -3.3125 C78.80122544 17.090301 77.47247585 39.32631886 69.84350586 59.87402344 C66.59026853 67.98265272 62.24491249 75.58527607 57.98901367 83.20019531 C47.58923985 101.90175638 40.99757589 120.91894686 46.72265625 142.2890625 C54.17958691 164.2806885 69.2834349 181.47526385 85 198.125 C93.42740315 207.3395036 100.42597682 217.99027655 104.875 229.6875 C105.23980469 230.56535156 105.60460937 231.44320312 105.98046875 232.34765625 C107.21394397 236.95298948 107.21556205 241.31359868 107.1875 246.0625 C107.18186035 247.07489746 107.1762207 248.08729492 107.17041016 249.13037109 C106.72687867 277.6086056 100.09947334 305.8660595 91.71435547 332.95751953 C90.91469094 335.55840631 90.14127907 338.1653129 89.37890625 340.77734375 C87.02339264 348.81964933 84.52187585 356.78564656 81.80859375 364.71508789 C76.40738708 380.51884919 71.67335654 396.47118051 71.6875 413.3125 C71.6865332 414.55845947 71.6865332 414.55845947 71.68554688 415.82958984 C71.73404509 421.7166119 72.21065302 427.46740192 72.875 433.3125 C76.92230742 471.27320268 70.55565612 507.73945627 55.94458008 542.96801758 C53.73113069 548.595868 51.8853888 554.36240231 49.98339844 560.1015625 C49.24863055 562.3166284 48.50743756 564.52947221 47.765625 566.7421875 C47.28867754 568.17435102 46.81210218 569.60663853 46.3359375 571.0390625 C46.11819672 571.68823639 45.90045593 572.33741028 45.67611694 573.0062561 C42.96729228 581.21516286 41.46102175 588.72561159 41.4375 597.375 C41.43363281 598.37523193 41.42976562 599.37546387 41.42578125 600.40600586 C41.53277459 607.48595567 42.56558046 613.91748129 44.375 620.75 C49.46127844 639.96880256 49.46127844 639.96880256 45.47265625 647.24609375 C41.79138261 651.76511894 38.44701149 654.18351249 32.66015625 655 C26.45403443 655.45900439 22.65643682 654.07523093 17.7265625 650.3125 C14.61921182 647.58537366 13.20764189 645.73305647 12.53515625 641.59765625 C12.01706406 633.39663602 14.46826027 625.7486006 16.68359375 617.9453125 C18.41180917 611.81333842 19.10985564 606.23666108 19.1875 599.875 C19.23100586 598.75061523 19.23100586 598.75061523 19.27539062 597.60351562 C19.41701987 584.36662804 14.24839223 571.24623086 10.01593018 558.86785889 C9.22410135 556.54916148 8.44164167 554.22748005 7.66162109 551.90478516 C6.58808586 548.70820381 5.51297367 545.51216643 4.43554688 542.31689453 C4.17443115 541.54226868 3.91331543 540.76764282 3.64428711 539.96954346 C3.14458215 538.48719905 2.64475205 537.00489683 2.14477539 535.52264404 C-1.08018069 525.95075337 -4.19999934 516.3562522 -7.125 506.6875 C-7.45822266 505.5938916 -7.79144531 504.5002832 -8.13476562 503.37353516 C-14.86960225 480.54411225 -14.58763986 457.23361856 -11.85546875 433.74536133 C-8.57661447 404.88104433 -16.14293881 380.10069753 -24.72167969 352.86694336 C-27.88174163 342.83265678 -30.8479677 332.76781441 -33.6010437 322.61404419 C-34.05984046 320.92708626 -34.52736992 319.24250832 -34.99633789 317.55834961 C-51.95009112 256.40511274 -46.88668377 206.60182685 -17.24536133 150.76977539 C-16.85773621 150.03226044 -16.47011108 149.29474548 -16.07073975 148.53488159 C-15.34305341 147.1507123 -14.60864485 145.7700459 -13.86602783 144.39382935 C-7.50375865 132.24203825 -7.20764808 117.88844836 -11.0625 104.875 C-13.60066519 97.29925503 -16.89148572 89.96741349 -20.17749023 82.69213867 C-20.55848877 81.83982666 -20.9394873 80.98751465 -21.33203125 80.109375 C-21.6772583 79.35237305 -22.02248535 78.59537109 -22.37817383 77.81542969 C-23.125 75.6875 -23.125 75.6875 -23.125 71.6875 C-23.785 71.6875 -24.445 71.6875 -25.125 71.6875 C-25.17543457 72.34234375 -25.22586914 72.9971875 -25.27783203 73.671875 C-25.77565206 79.65839861 -26.52604359 85.54828946 -27.48266602 91.47753906 C-29.67046741 105.05243892 -31.02646299 118.58502819 -31.99755859 132.29296875 C-33.22094585 148.98400605 -37.24773668 163.77318164 -42.9375 179.4375 C-44.15738796 182.82632995 -45.37119992 186.21729936 -46.58203125 189.609375 C-46.87892853 190.43908813 -47.17582581 191.26880127 -47.48171997 192.12365723 C-50.37343138 200.26592809 -52.9698821 208.49351569 -55.51486206 216.74961853 C-56.07183875 218.51865261 -56.66737489 220.27542802 -57.2668457 222.03051758 C-59.8506627 230.03042664 -58.87380844 237.69750606 -55.125 245.0625 C-49.24964682 256.91421529 -51.6705821 272.80416993 -52.125 285.6875 C-55.9765625 283.9375 -55.9765625 283.9375 -57.3125 281.6875 C-58.28618653 278.09234975 -58.6065031 274.60254961 -58.87890625 270.89453125 C-59.00077741 268.64816119 -59.00077741 268.64816119 -60.125 266.6875 C-61.115 266.3575 -62.105 266.0275 -63.125 265.6875 C-63.80118973 278.72293541 -61.39935291 286.66657751 -54.296875 297.4609375 C-53.125 299.6875 -53.125 299.6875 -53.125 303.6875 C-63.5424276 298.91863314 -71.14592388 288.90195033 -75.13476562 278.38232422 C-76.23750361 274.26771951 -76.42712122 270.4875582 -76.36328125 266.265625 C-76.35636765 265.44545395 -76.34945404 264.6252829 -76.34233093 263.78025818 C-76.18014781 253.07560954 -75.3126821 242.41547296 -74.4375 231.75 C-74.34952148 230.65487091 -74.26154297 229.55974182 -74.17089844 228.431427 C-72.88304325 212.47157197 -71.38670356 196.53950221 -69.625 180.625 C-69.52957916 179.73813507 -69.43415833 178.85127014 -69.33584595 177.93753052 C-67.60696134 162.03331636 -64.54812753 146.65951977 -59.8828125 131.34960938 C-56.62667943 120.19317909 -55.80073732 108.80813517 -55.41908264 97.25218582 C-55.34158505 94.91116433 -55.2543519 92.57066626 -55.16491699 90.23007202 C-54.97659478 85.25783547 -54.79999135 80.28522111 -54.625 75.3125 C-54.42175836 69.5459561 -54.21339398 63.77967621 -53.99342346 58.01374435 C-53.9089619 55.73715935 -53.83306918 53.46040307 -53.75769043 51.1835022 C-52.58165644 18.42344773 -52.58165644 18.42344773 -42.9375 7.6875 C-36.57797694 2.08732298 -28.46186763 0.38758972 -20.4375 -1.625 C-19.72480957 -1.80893311 -19.01211914 -1.99286621 -18.27783203 -2.18237305 C-11.57738555 -3.75514916 -6.1976051 -3.13765901 0 0 Z " fill="#316A9F" transform="translate(487.125,253.3125)"/>
<path d="M0 0 C0.80695313 0.37511719 1.61390625 0.75023438 2.4453125 1.13671875 C4.99398313 2.37208357 7.49509753 3.67851602 10 5 C10.78761719 5.38027344 11.57523438 5.76054688 12.38671875 6.15234375 C22.91665246 11.46200472 28.13069711 20.05069607 32 31 C37.37828322 51.12534813 40.71042052 77.37614776 30 96 C24.5467789 104.75820359 18.00096586 112.76688032 9 118 C8.34 118 7.68 118 7 118 C3.17373452 110.812087 1.20189376 105.17615507 2 97 C1.34 97 0.68 97 0 97 C-0.22429687 97.58265625 -0.44859375 98.1653125 -0.6796875 98.765625 C-3.57464451 103.66478302 -9.82415024 107.10696668 -15.22265625 108.625 C-23.16211586 109.13009485 -29.42424864 102.87878244 -35 98 C-34.95359375 98.6290625 -34.9071875 99.258125 -34.859375 99.90625 C-34.55212142 107.19254926 -35.74076416 111.9570183 -40.33203125 117.65234375 C-48.06172045 125.34289528 -59.82329802 127.06533967 -70.125 128.9375 C-80.86410436 130.92726835 -90.64178365 133.84037794 -97.60546875 142.8203125 C-106.39250035 156.55466441 -105.44624351 174.27421623 -106 190 C-107.58199631 190.64910154 -109.16565724 191.29414694 -110.75 191.9375 C-111.63171875 192.29714844 -112.5134375 192.65679687 -113.421875 193.02734375 C-121.877996 196.21760758 -132.93767153 196.5583487 -141.5 193.4375 C-146.28563788 191.17446107 -150.49547928 187.97440059 -154 184 C-154 183.34 -154 182.68 -154 182 C-153.071875 182.33 -152.14375 182.66 -151.1875 183 C-143.00335993 185.26053869 -135.62472685 184.78204197 -128.16796875 180.6328125 C-123.81895369 177.3573381 -121.6904567 173.07137011 -120 168 C-119.93334624 166.60560336 -119.91461801 165.20830125 -119.9375 163.8125 C-119.958125 162.554375 -119.97875 161.29625 -120 160 C-120.49628906 160.39832031 -120.99257813 160.79664063 -121.50390625 161.20703125 C-130.36941118 168.12111574 -138.69987725 170.93213748 -150 170 C-155.38253458 168.88345134 -159.70544301 167.50035809 -164 164 C-163.03320312 163.98582031 -162.06640625 163.97164062 -161.0703125 163.95703125 C-150.96563758 163.58685999 -142.96666478 162.26695904 -135.4375 154.875 C-131.37546951 149.89021317 -129.10115366 143.90170208 -126.48071289 138.08496094 C-122.03424451 128.47433535 -115.97070691 121.72598313 -107 116 C-120.08365539 119.8466453 -128.57020884 127.4000353 -137.86279297 136.98120117 C-142.44749579 141.63356788 -147.07177741 145.17400142 -153 148 C-153.65742188 148.32226562 -154.31484375 148.64453125 -154.9921875 148.9765625 C-164.18227665 153.19690387 -177.21791264 153.76459262 -187 150.9375 C-191.95248189 148.94100045 -195.99188328 145.45854043 -200 142 C-199.34 141.67 -198.68 141.34 -198 141 C-197.14921875 141.46535156 -196.2984375 141.93070313 -195.421875 142.41015625 C-191.17821267 144.38181215 -187.86459687 144.4989119 -183.25 144.4375 C-182.05129272 144.42505249 -182.05129272 144.42505249 -180.82836914 144.41235352 C-170.26869105 144.11083238 -162.65858117 140.22691568 -155 133 C-149.63914818 127.21483365 -145.47212382 120.71179755 -141.29833984 114.05932617 C-137.61147424 108.245176 -133.76878413 102.84585608 -128 99 C-136.57888184 100.22555455 -143.4940036 104.0830587 -151.08886719 108.01904297 C-163.76041597 114.52316701 -176.64806279 119.19400086 -191 114.75 C-198.11689174 111.90061714 -203.70045371 107.36048583 -208 101 C-208.69921875 98.24609375 -208.69921875 98.24609375 -209 96 C-208.29875 96.7425 -207.5975 97.485 -206.875 98.25 C-200.08217176 104.74748788 -194.74678434 106.44439748 -185.54296875 106.33203125 C-174.59511086 105.30604677 -166.95606378 99.06057608 -159 92 C-149.75282874 83.80579131 -140.15470687 77.82667602 -128 75 C-136.18583797 69.54277469 -146.44785009 69.03172968 -156 70 C-162.76966283 71.53226384 -168.09748536 74.3420098 -173.44140625 78.73046875 C-175 80 -175 80 -177 81 C-176.18430627 73.74938905 -170.41083644 68.78529694 -164.9765625 64.34765625 C-156.96541316 58.96874169 -148.25544596 57.54220948 -138.78515625 57.77734375 C-137.84876816 57.78633194 -136.91238007 57.79532013 -135.94761658 57.80458069 C-132.98551192 57.83430617 -130.02426383 57.88402808 -127.0625 57.9375 C-98.73674517 58.41889985 -98.73674517 58.41889985 -75 44 C-69.18387998 37.48948227 -64.16344048 30.32587767 -59.25 23.125 C-51.52271714 11.88778936 -41.69054637 0.70048663 -27.796875 -2.63671875 C-18.37942242 -3.85993536 -8.73242404 -4.13554421 0 0 Z " fill="#77997F" transform="translate(534,119)"/>
<path d="M0 0 C9.81968036 0.4260165 19.44290323 2.7271862 27.21484375 9.046875 C36.49024667 19.19501824 37.25884135 32.7994505 37.52072144 45.8235569 C37.56365354 47.95171264 37.61762368 50.07936128 37.67407227 52.2071991 C37.79238092 56.74208911 37.89682716 61.27724429 38 65.8125 C38.60643834 102.24517064 38.60643834 102.24517064 45 138 C53.10505298 168.52777629 55.22376967 200.2371396 57.97952271 231.61315918 C58.15709546 233.63151407 58.33693357 235.6496712 58.51925659 237.66760254 C59.39683005 247.44215634 60.15542936 257.18571043 60.21875 267.00390625 C60.22682678 267.72430588 60.23490356 268.44470551 60.2432251 269.18693542 C60.17624735 281.89426059 53.44020111 291.12229386 45 300 C39.71084337 305 39.71084337 305 37 305 C37.40452 299.30060213 39.09110411 295.76095083 42.5 291.3125 C46.65775947 285.7709661 48.14388027 282.37599816 48.125 275.4375 C48.12757813 274.48746094 48.13015625 273.53742188 48.1328125 272.55859375 C48.10770994 269.8787562 48.10770994 269.8787562 47 267 C46.01 267 45.02 267 44 267 C43.81824219 268.19238281 43.63648438 269.38476562 43.44921875 270.61328125 C43.19595074 272.17979082 42.94200928 273.74619162 42.6875 275.3125 C42.56955078 276.09818359 42.45160156 276.88386719 42.33007812 277.69335938 C42.20439453 278.45068359 42.07871094 279.20800781 41.94921875 279.98828125 C41.83924561 280.68477783 41.72927246 281.38127441 41.6159668 282.09887695 C40.86369491 284.42069271 39.8958997 285.48724173 38 287 C37.34 287 36.68 287 36 287 C35.89948164 282.96573413 35.82777486 278.93197455 35.78027344 274.89672852 C35.76042733 273.5303881 35.73334086 272.16412941 35.69824219 270.7980957 C35.41923778 259.64202241 37.04953974 250.26141415 41.75 240.125 C44.1590549 234.10236274 42.87845618 228.64867561 41.1875 222.5625 C40.85105469 221.32628906 40.51460937 220.09007812 40.16796875 218.81640625 C39.18264845 215.59681449 38.07823748 212.4698384 36.87231445 209.32788086 C34.54682434 203.12201794 32.4694471 196.82195492 30.31640625 190.5546875 C27.92645942 183.606293 27.92645942 183.606293 25.37890625 176.71484375 C23.88978166 172.70306616 22.62803242 168.67049099 21.4375 164.5625 C21.22061523 163.81677734 21.00373047 163.07105469 20.78027344 162.30273438 C17.39796396 150.54933725 15.98064949 139.40404508 15.5625 127.1875 C15.28995931 120.44239606 14.89264385 113.89692618 13.60546875 107.2578125 C12.74513779 102.62867687 12.09837455 97.97372323 11.4375 93.3125 C11.31068848 92.43263428 11.18387695 91.55276855 11.05322266 90.64624023 C10.26425147 85.10624508 9.59197048 79.56452251 9 74 C8.34 74 7.68 74 7 74 C6.92394531 74.7940625 6.84789062 75.588125 6.76953125 76.40625 C5.75547545 81.14194204 3.76250057 85.14510133 1.6875 89.5 C-5.42572296 105.00775331 -10.68107907 121.10145449 -5.5 138.125 C-1.84073173 147.44529653 2.99001578 156.30192166 7.75390625 165.09375 C13.21759294 175.22887948 17.93587174 185.13377974 21.39892578 196.12353516 C22.32707836 199.02109027 23.3648029 201.88020132 24.375 204.75 C25.63582248 208.33770625 26.17806526 211.19214292 26 215 C23.38200035 211.80819221 20.94989967 208.53630639 18.60131836 205.1418457 C14.26205923 198.88996071 9.63800517 193.20258822 4.43359375 187.6328125 C-13.30426495 168.44289795 -27.04796839 147.88862055 -26.37890625 120.890625 C-25.49219069 105.18309215 -16.84339268 91.52176057 -9.33984375 78.12890625 C-5.16939064 70.61782906 -1.44358691 62.92206876 1.25 54.75 C1.56453125 53.81671875 1.8790625 52.8834375 2.203125 51.921875 C6.76976467 35.17752956 4.6543337 16.45639415 0 0 Z " fill="#7D9E64" transform="translate(564,252)"/>
<path d="M0 0 C4.48300156 0.7770536 6.72156014 1.72156014 10 5 C17.88216765 16.84539239 16.8621591 29.37638154 14.33764648 42.89575195 C11.65637264 56.14572609 5.31251319 67.13832225 -6 75 C-11.51957221 78.12428616 -16.7697133 79.16400456 -23 78 C-32.98740986 73.40546561 -40.18105058 64.65555067 -45 55 C-45 54.34 -45 53.68 -45 53 C-45.94915283 53.22719727 -45.94915283 53.22719727 -46.91748047 53.45898438 C-68.32618535 58.49268239 -68.32618535 58.49268239 -79.25 58.4375 C-80.34610596 58.43363281 -80.34610596 58.43363281 -81.46435547 58.4296875 C-85.19102065 58.3232367 -87.7565868 57.77765702 -91 56 C-89.1128125 55.85304688 -89.1128125 55.85304688 -87.1875 55.703125 C-69.24535591 54.19090893 -54.78151021 50.76652028 -39 42 C-38.06285156 41.49339844 -37.12570312 40.98679688 -36.16015625 40.46484375 C-19.17732106 30.83318841 -8.41371282 17.20345751 0 0 Z " fill="#FBFCFB" transform="translate(535,141)"/>
<path d="M0 0 C0.33 0 0.66 0 1 0 C6.92033047 27.88284674 -3.05885224 51.1043194 -15.91552734 74.98339844 C-25.72694772 93.22795771 -32.1064173 110.58155573 -25.96875 131.2109375 C-25.6490625 132.13132812 -25.329375 133.05171875 -25 134 C-24.6596875 134.98226562 -24.319375 135.96453125 -23.96875 136.9765625 C-18.0940716 152.33805264 -7.09019691 164.56738511 3.84765625 176.5625 C7.08702294 180.23103868 10.06163919 184.08848432 13 188 C12.66226563 188.61359375 12.32453125 189.2271875 11.9765625 189.859375 C10.81493098 192.4056713 11.07908262 193.42143135 12 196 C3.07286123 187.16919726 -5.19090295 177.82915862 -13 168 C-13.825 166.99324219 -14.65 165.98648438 -15.5 164.94921875 C-29.38649856 147.76649699 -37.91388329 128.50187069 -36 106 C-34.01911427 90.126197 -25.19395809 76.07216672 -17.72998047 62.23144531 C-11.39416725 50.39672563 -7.24936531 39.14346753 -4.61328125 25.93359375 C-4 23 -4 23 -3 20 C-1.68 20.33 -0.36 20.66 1 21 C0.505 10.605 0.505 10.605 0 0 Z " fill="#F1F8F5" transform="translate(567,264)"/>
<path d="M0 0 C0.33 0 0.66 0 1 0 C1.08636719 1.13695312 1.17273438 2.27390625 1.26171875 3.4453125 C3.91034782 34.05946663 21.7716655 55.90379971 42.125 77.4375 C50.55240315 86.6520036 57.55097682 97.30277655 62 109 C62.36609375 109.84949219 62.7321875 110.69898438 63.109375 111.57421875 C64.42351372 116.62904182 64.28875602 121.55023428 64.25 126.75 C64.26160156 128.32974609 64.26160156 128.32974609 64.2734375 129.94140625 C64.27085937 130.94558594 64.26828125 131.94976562 64.265625 132.984375 C64.26336914 133.89928711 64.26111328 134.81419922 64.25878906 135.75683594 C64 138 64 138 62 140 C61.65388672 138.49373047 61.65388672 138.49373047 61.30078125 136.95703125 C56.72449983 117.53888512 49.45436765 101.62438945 36.32958984 86.55810547 C32.51493332 82.08782675 28.96920432 77.38860312 25.36572266 72.74804688 C24.01989731 71.02546742 22.65847248 69.31637857 21.29296875 67.609375 C16.10429431 61.07570232 11.7574084 54.46981789 8 47 C7.54882812 46.2265625 7.09765625 45.453125 6.6328125 44.65625 C-1.08601188 30.95419488 -0.43311887 15.22801523 0 0 Z " fill="#365F82" transform="translate(530,374)"/>
<path d="M0 0 C-2.475 1.485 -2.475 1.485 -5 3 C-2.525 3.495 -2.525 3.495 0 4 C0 4.33 0 4.66 0 5 C-1.11858398 5.2333606 -1.11858398 5.2333606 -2.25976562 5.47143555 C-5.67683097 6.19392958 -9.08821456 6.94048702 -12.5 7.6875 C-13.67304688 7.93177734 -14.84609375 8.17605469 -16.0546875 8.42773438 C-24.75829404 10.35915268 -32.28881091 12.86986829 -37.90625 20.1953125 C-41.04780891 25.3788847 -42.94098245 31.05891156 -44 37 C-44.33 37 -44.66 37 -45 37 C-45.24632846 32.97663517 -45.16425794 29.93869168 -43.4375 26.3125 C-41.76042002 23.22121989 -41.76042002 23.22121989 -42.3125 20.5625 C-42.539375 20.046875 -42.76625 19.53125 -43 19 C-43.99 19.66 -44.98 20.32 -46 21 C-44.33156676 14.88241147 -39.99061194 10.92480875 -34.796875 7.58203125 C-26.4073947 3.29495405 -17.08597809 1.98630832 -7.88842773 0.40136719 C-2.48808173 -0.74642452 -2.48808173 -0.74642452 0 0 Z " fill="#EAF6F6" transform="translate(480,245)"/>
<path d="M0 0 C1.9375 0.375 1.9375 0.375 4 1 C5.80305052 4.60610104 5.7539628 8.8614955 6.20703125 12.8359375 C6.84477566 16.53010574 6.84477566 16.53010574 11 20 C11 15.05 11 10.1 11 5 C11.33 5 11.66 5 12 5 C14.01120395 18.43619445 14.01120395 18.43619445 11.61328125 22.14453125 C9.72287918 23.5197294 8.26838199 24.42813899 6 25 C3 24 3 24 1.83203125 22.1015625 C-1.1560576 14.84313978 -2.53977914 7.61933741 0 0 Z " fill="#E8F3F8" transform="translate(424,519)"/>
<path d="M0 0 C0.51908936 0.20681396 1.03817871 0.41362793 1.57299805 0.62670898 C3.94278697 1.56801611 6.31509554 2.50280557 8.6875 3.4375 C9.50412109 3.76298828 10.32074219 4.08847656 11.16210938 4.42382812 C11.95810547 4.73642578 12.75410156 5.04902344 13.57421875 5.37109375 C14.30213623 5.65911865 15.03005371 5.94714355 15.7800293 6.24389648 C28.37170405 10.53251594 44.60297065 8.99436839 57 5 C58.66245039 4.64623796 60.32826966 4.30693088 62 4 C61.67 4.66 61.34 5.32 61 6 C60.01 6 59.02 6 58 6 C58 6.66 58 7.32 58 8 C45.39819794 12.01540386 30.99008853 14.02229828 18.125 9.875 C14.65914015 8.90455924 12.46349843 9.15524428 9 10 C8.9175 9.38125 8.835 8.7625 8.75 8.125 C8.20077462 5.86279272 8.20077462 5.86279272 6.1875 4.875 C5.465625 4.58625 4.74375 4.2975 4 4 C2.66666667 3.33333333 1.33333333 2.66666667 0 2 C0 1.34 0 0.68 0 0 Z " fill="#3B8CB5" transform="translate(483,252)"/>
<path d="M0 0 C0.66 0 1.32 0 2 0 C1.67 0.99 1.34 1.98 1 3 C1.99 3.66 2.98 4.32 4 5 C-5.63459136 7.39262579 -14.9699982 9.3915059 -24.9375 9.375 C-26.06260986 9.37693359 -26.06260986 9.37693359 -27.21044922 9.37890625 C-31.03731036 9.30168456 -33.67238183 8.83924864 -37 7 C-35.741875 6.90203125 -34.48375 6.8040625 -33.1875 6.703125 C-15.58946218 6.2218226 -15.58946218 6.2218226 0 0 Z " fill="#EBF2EC" transform="translate(481,190)"/>
<path d="M0 0 C-0.33 0.99 -0.66 1.98 -1 3 C-1.99 3 -2.98 3 -4 3 C-4.33 3.66 -4.66 4.32 -5 5 C-5.66 5 -6.32 5 -7 5 C-7.3403125 5.8971875 -7.3403125 5.8971875 -7.6875 6.8125 C-9 9 -9 9 -11.4375 10.4375 C-15.52679972 12.93097544 -16.7328631 15.9314524 -17.87890625 20.515625 C-18.10449219 21.74796875 -18.33007812 22.9803125 -18.5625 24.25 C-18.97794197 26.51263313 -19.44205731 28.76822926 -20 31 C-20.99 31.495 -20.99 31.495 -22 32 C-21.78374969 22.01316738 -19.62885997 12.37989687 -12.5625 4.9375 C-5.10987544 -1.70329181 -5.10987544 -1.70329181 0 0 Z " fill="#3485AE" transform="translate(457,256)"/>
<path d="M0 0 C2.59691985 2.59691985 2.61263998 4.40388316 3.1875 8 C3.36667969 9.0725 3.54585938 10.145 3.73046875 11.25 C4 14 4 14 3 16 C3.66 16 4.32 16 5 16 C4.86076952 20.06275446 4.71246082 24.12512857 4.5625 28.1875 C4.52318359 29.33798828 4.48386719 30.48847656 4.44335938 31.67382812 C4.40146484 32.78564453 4.35957031 33.89746094 4.31640625 35.04296875 C4.27974854 36.06414795 4.24309082 37.08532715 4.20532227 38.13745117 C3.83516753 43.29805079 2.45670802 48.04719273 1 53 C0.67 53 0.34 53 0 53 C0.0721875 52.05125 0.144375 51.1025 0.21875 50.125 C0.84855397 41.1643015 1.10862732 32.23314359 1.125 23.25 C1.12951172 22.21488281 1.13402344 21.17976562 1.13867188 20.11328125 C1.13673828 19.13230469 1.13480469 18.15132812 1.1328125 17.140625 C1.13168457 16.26954102 1.13055664 15.39845703 1.12939453 14.50097656 C0.99552462 11.91349855 0.51971517 9.53457151 0 7 C-0.03824623 4.66698014 -0.04574284 2.33288492 0 0 Z " fill="#345484" transform="translate(475,644)"/>
<path d="M0 0 C0.33 0 0.66 0 1 0 C1 10.56 1 21.12 1 32 C-3 30 -3 30 -4.2109375 27.73828125 C-5.04496776 24.84394852 -5.40798558 22.18953274 -5.625 19.1875 C-5.69976562 18.21167969 -5.77453125 17.23585938 -5.8515625 16.23046875 C-5.90054687 15.49441406 -5.94953125 14.75835938 -6 14 C-5.01 14.33 -4.02 14.66 -3 15 C-2.67 15.99 -2.34 16.98 -2 18 C-1.34 12.06 -0.68 6.12 0 0 Z " fill="#4B769C" transform="translate(434,507)"/>
<path d="M0 0 C0.66 0 1.32 0 2 0 C3.72651811 4.93290889 5.21079294 9.77909939 6.375 14.875 C7.85373421 20.98450715 10.2661873 26.3637303 13 32 C14.46941442 35.29413806 15.85838531 38.57515592 17 42 C16.67 42.66 16.34 43.32 16 44 C15.01 43.67 14.02 43.34 13 43 C11.88686069 40.41893443 10.97260371 37.94050618 10.1171875 35.2734375 C9.85745148 34.49239655 9.59771545 33.71135559 9.33010864 32.90664673 C8.78160761 31.24904236 8.23895119 29.58949445 7.70166016 27.92822266 C6.883703 25.4018801 6.04705388 22.88236145 5.20703125 20.36328125 C4.67595565 18.75037087 4.14597311 17.13710009 3.6171875 15.5234375 C3.3692746 14.7752475 3.12136169 14.0270575 2.86593628 13.25619507 C1.44367045 8.83192733 0.52377161 4.61968085 0 0 Z " fill="#425584" transform="translate(486,775)"/>
<path d="M0 0 C0.33 0 0.66 0 1 0 C1.81083624 4.26010789 2.13515187 8.2901519 2.125 12.625 C2.12757813 13.73101562 2.13015625 14.83703125 2.1328125 15.9765625 C2 19 2 19 1.5 20.87255859 C0.92292824 23.32793132 0.87043719 25.5407419 0.8671875 28.0625 C0.86525391 29.50496094 0.86525391 29.50496094 0.86328125 30.9765625 C0.86714844 31.97429688 0.87101562 32.97203125 0.875 34 C0.87113281 34.99773438 0.86726563 35.99546875 0.86328125 37.0234375 C0.86457031 37.98507812 0.86585938 38.94671875 0.8671875 39.9375 C0.86831543 40.81277344 0.86944336 41.68804688 0.87060547 42.58984375 C0.99268214 44.86369448 1.36336174 46.82013036 2 49 C1.34 49 0.68 49 0 49 C-2.17664672 44.61215661 -2.30652746 40.54928214 -2.25 35.75 C-2.24613281 34.94457764 -2.24226563 34.13915527 -2.23828125 33.30932617 C-2.08742314 22.17620682 -1.02055941 11.08094091 0 0 Z " fill="#507D9F" transform="translate(413,484)"/>
<path d="M0 0 C0.66 0 1.32 0 2 0 C1.43736042 3.50509251 0.34814818 4.95268008 -2.375 7.1875 C-2.98085938 7.69667969 -3.58671875 8.20585938 -4.2109375 8.73046875 C-8.58238757 11.83248026 -13.87653008 11.7899298 -19 11 C-24.24876194 8.56590647 -27.396492 6.20701599 -30 1 C-26.7 1.99 -23.4 2.98 -20 4 C-20 4.99 -20 5.98 -20 7 C-17.03 7.99 -14.06 8.98 -11 10 C-11 9.34 -11 8.68 -11 8 C-9.906875 7.773125 -8.81375 7.54625 -7.6875 7.3125 C-3.8866568 6.34901352 -3.8866568 6.34901352 -2.125 3.4375 C-1.75375 2.633125 -1.3825 1.82875 -1 1 C-0.67 0.67 -0.34 0.34 0 0 Z " fill="#495889" transform="translate(531,897)"/>
<path d="M0 0 C1.31152647 3.93457942 0.36968467 5.54026824 -0.984375 9.43359375 C-1.20063538 10.06677017 -1.41689575 10.69994659 -1.63970947 11.35231018 C-2.33466185 13.38374181 -3.04141031 15.41078889 -3.75 17.4375 C-4.6678025 20.07988299 -5.5795929 22.72422371 -6.484375 25.37109375 C-6.70436157 26.01428558 -6.92434814 26.65747742 -7.15100098 27.32015991 C-9.10771913 33.13583818 -10.64238443 39.01932395 -12 45 C-12.33 45 -12.66 45 -13 45 C-13.24594352 35.3344195 -11.31724429 26.04675086 -7.04296875 17.3671875 C-5.24815676 13.29356928 -4.14022135 8.99954237 -2.9296875 4.72265625 C-2 2 -2 2 0 0 Z " fill="#3E4D7E" transform="translate(540,799)"/>
<path d="M0 0 C5.60614781 12.81405215 6.49503924 26.21224055 6 40 C5.67 40 5.34 40 5 40 C4.9498877 39.44650879 4.89977539 38.89301758 4.84814453 38.32275391 C3.57656718 24.0653616 3.57656718 24.0653616 1 10 C0.34 10 -0.32 10 -1 10 C-1 7.69 -1 5.38 -1 3 C-1.66 3 -2.32 3 -3 3 C-3 3.66 -3 4.32 -3 5 C-5.31 5.66 -7.62 6.32 -10 7 C-10.66 6.34 -11.32 5.68 -12 5 C-10.37750059 4.16180842 -8.75191503 3.3295884 -7.125 2.5 C-6.22007812 2.0359375 -5.31515625 1.571875 -4.3828125 1.09375 C-2 0 -2 0 0 0 Z " fill="#5398B6" transform="translate(557,250)"/>
<path d="M0 0 C0 0.66 0 1.32 0 2 C1.32 1.67 2.64 1.34 4 1 C0.8861216 6.31954226 -3.01261586 10.35122113 -8 14 C-8.66 14 -9.32 14 -10 14 C-9.63074596 7.84576594 -8.17122773 5.27296499 -4 1 C-2 0 -2 0 0 0 Z " fill="#7A9777" transform="translate(611,543)"/>
<path d="M0 0 C0.66 0.66 1.32 1.32 2 2 C1.9765625 4.3828125 1.9765625 4.3828125 1.625 7.125 C1.51414062 8.03507812 1.40328125 8.94515625 1.2890625 9.8828125 C1.19367188 10.58148438 1.09828125 11.28015625 1 12 C0.34 12 -0.32 12 -1 12 C-0.97679687 12.74121094 -0.95359375 13.48242188 -0.9296875 14.24609375 C-0.76867941 23.6420657 -1.75268364 32.70081109 -3 42 C-3.66 42 -4.32 42 -5 42 C-3.9967171 27.8531707 -2.64027387 13.94064603 0 0 Z " fill="#477FA1" transform="translate(422,404)"/>
<path d="M0 0 C0.66 0.33 1.32 0.66 2 1 C-0.48385127 11.76335549 -5.77501933 22.85705965 -12 32 C-12.66 32 -13.32 32 -14 32 C-12.8905928 28.51329166 -11.73662334 25.22515763 -10 22 C-9.34 22 -8.68 22 -8 22 C-8.33 20.68 -8.66 19.36 -9 18 C-8.01 18 -7.02 18 -6 18 C-5.67 15.03 -5.34 12.06 -5 9 C-4.34 9 -3.68 9 -3 9 C-2.01 6.03 -1.02 3.06 0 0 Z " fill="#4B8BB0" transform="translate(557,304)"/>
<path d="M0 0 C0.99 0.495 0.99 0.495 2 1 C2.90026351 4.60105404 3.54189087 8.22584642 4.21875 11.875 C4.4765625 12.90625 4.734375 13.9375 5 15 C5.66 15.33 6.32 15.66 7 16 C7.3979204 19.36423611 7.50912623 22.70990324 7.65625 26.09375 C7.82640625 27.53234375 7.82640625 27.53234375 8 29 C8.66 29.33 9.32 29.66 10 30 C9.34 30.66 8.68 31.32 8 32 C7.59952556 34.32275177 7.2602896 36.65739357 7 39 C6.67 39 6.34 39 6 39 C5.97421875 38.030625 5.9484375 37.06125 5.921875 36.0625 C5.58278655 27.20046803 4.31618835 19.16513241 1.9375 10.62109375 C1.01329233 7.05134162 0.4512306 3.65214764 0 0 Z " fill="#4C5B89" transform="translate(501,820)"/>
<path d="M0 0 C1.49119088 3.94964071 0.53087524 7.49964777 -0.25 11.5 C-2.57210607 24.2369352 -3.71639362 37.12541427 -5 50 C-7.6152133 46.07718005 -7.48692746 43.45023682 -6.57324219 38.85253906 C-6.39954102 38.06073242 -6.22583984 37.26892578 -6.046875 36.453125 C-4.76780353 30.20083671 -4.28166183 23.94541595 -3.7890625 17.59179688 C-3.25611845 11.32051557 -1.98996088 5.96988263 0 0 Z " fill="#E1F5FA" transform="translate(422,400)"/>
<path d="M0 0 C0.66 0.33 1.32 0.66 2 1 C0.68 1.33 -0.64 1.66 -2 2 C-2 2.66 -2 3.32 -2 4 C-12.9869821 7.50086203 -23.5712674 8.74336599 -35 7 C-35 6.67 -35 6.34 -35 6 C-34.030625 5.97421875 -33.06125 5.9484375 -32.0625 5.921875 C-20.90512613 5.49517458 -10.60362631 3.5345421 0 0 Z " fill="#3588B0" transform="translate(543,256)"/>
<path d="M0 0 C0.969375 0.309375 1.93875 0.61875 2.9375 0.9375 C7.23664491 2.17967097 11.55342634 2.61684853 16 3 C16 3.33 16 3.66 16 4 C14.35 4.33 12.7 4.66 11 5 C11 5.66 11 6.32 11 7 C11.66 7.33 12.32 7.66 13 8 C10.76953125 8.70703125 10.76953125 8.70703125 8 9 C5.76171875 7.63671875 5.76171875 7.63671875 3.6875 5.6875 C2.99011719 5.05199219 2.29273438 4.41648437 1.57421875 3.76171875 C0 2 0 2 0 0 Z " fill="#859F8B" transform="translate(380,301)"/>
<path d="M0 0 C0.33 0 0.66 0 1 0 C0.35856108 6.44149223 -1.54745269 12.30457383 -3.5625 18.4375 C-3.89185547 19.45521484 -4.22121094 20.47292969 -4.56054688 21.52148438 C-5.36863532 24.01601826 -6.18190128 26.50873483 -7 29 C-9.24847582 21.21553564 -4.93008527 12.26151566 -2 5 C-1.608125 4.01 -1.21625 3.02 -0.8125 2 C-0.544375 1.34 -0.27625 0.68 0 0 Z " fill="#445683" transform="translate(554,755)"/>
<path d="M0 0 C1.061761 3.22020636 0.93155245 5.07043495 -0.14453125 8.265625 C-0.40943359 9.07386719 -0.67433594 9.88210938 -0.94726562 10.71484375 C-1.23279297 11.55144531 -1.51832031 12.38804687 -1.8125 13.25 C-3.77471828 19.13203787 -5.57415935 24.96278203 -7 31 C-7.33 31 -7.66 31 -8 31 C-7.69076106 24.60195302 -7.30383816 18.81312238 -4.765625 12.890625 C-3.46847406 9.68745634 -2.78029048 6.36125129 -2 3 C-1.34 3 -0.68 3 0 3 C0 2.01 0 1.02 0 0 Z " fill="#406089" transform="translate(568,614)"/>
<path d="M0 0 C0.70125 0.7425 1.4025 1.485 2.125 2.25 C4.9280019 4.93113225 7.72677055 6.9364423 11 9 C11.99 9.66 12.98 10.32 14 11 C14 11.66 14 12.32 14 13 C11.9375 13.9375 11.9375 13.9375 9 14 C5.07319949 11.08439275 1.85378208 7.55683377 0 3 C0 2.01 0 1.02 0 0 Z " fill="#8FA694" transform="translate(325,215)"/>
<path d="M0 0 C0.33 0 0.66 0 1 0 C0.27018606 10.69753587 -0.84078429 21.34196822 -2 32 C-2.33 32 -2.66 32 -3 32 C-3.57446809 10.46808511 -3.57446809 10.46808511 0 0 Z " fill="#4685A7" transform="translate(458,341)"/>
<path d="M0 0 C6.76215448 0.40939975 12.67162748 1.56953809 19 4 C19 4.33 19 4.66 19 5 C18.02417969 4.88140625 17.04835938 4.7628125 16.04296875 4.640625 C14.77066406 4.51171875 13.49835937 4.3828125 12.1875 4.25 C10.92292969 4.11078125 9.65835938 3.9715625 8.35546875 3.828125 C4.92941964 3.62422827 4.92941964 3.62422827 3.05078125 5.984375 C2.70402344 6.64953125 2.35726562 7.3146875 2 8 C1.34 5.36 0.68 2.72 0 0 Z " fill="#90AB66" transform="translate(564,252)"/>
<path d="M0 0 C3.32710168 4.99065252 5.58827908 10.92111612 5 17 C2.04656216 13.53734874 -0.4225355 10.29420892 -2 6 C-1.1875 2.625 -1.1875 2.625 0 0 Z " fill="#7F9876" transform="translate(585,450)"/>
<path d="M0 0 C0.33 0 0.66 0 1 0 C-0.61702128 19.61702128 -0.61702128 19.61702128 -4 23 C-4.02689216 21.52093108 -4.04634621 20.04172517 -4.0625 18.5625 C-4.07410156 17.73878906 -4.08570313 16.91507812 -4.09765625 16.06640625 C-4 14 -4 14 -3 13 C-2.71602148 10.19176801 -2.55153335 7.38353365 -2.37890625 4.56640625 C-2 2 -2 2 0 0 Z " fill="#4F85A9" transform="translate(453,392)"/>
<path d="M0 0 C0 0.99 0 1.98 0 3 C-0.99 3.33 -1.98 3.66 -3 4 C-3 2.68 -3 1.36 -3 0 C-3.99 0.66 -4.98 1.32 -6 2 C-8.32914823 2.36141955 -10.66253478 2.69699525 -13 3 C-13.33 3.33 -13.66 3.66 -14 4 C-15.68608966 4.07205511 -17.37500659 4.08386068 -19.0625 4.0625 C-19.98160156 4.05347656 -20.90070313 4.04445312 -21.84765625 4.03515625 C-22.55792969 4.02355469 -23.26820313 4.01195312 -24 4 C-16.89612447 0.04187957 -7.94108966 -2.03144154 0 0 Z " fill="#3C8AB1" transform="translate(482,251)"/>
<path d="M0 0 C6.875 1.875 6.875 1.875 8 3 C10.18292774 3.23481693 12.37203174 3.41363323 14.5625 3.5625 C16.35880859 3.68818359 16.35880859 3.68818359 18.19140625 3.81640625 C19.11824219 3.87699219 20.04507812 3.93757813 21 4 C21 4.33 21 4.66 21 5 C17.7 5.33 14.4 5.66 11 6 C11 6.66 11 7.32 11 8 C6.40378078 6.5129879 3.53027653 4.20187872 0 1 C0 0.67 0 0.34 0 0 Z " fill="#94AA99" transform="translate(334,260)"/>
<path d="M0 0 C4.35076092 -0.1875328 4.35076092 -0.1875328 6.43359375 1.6875 C6.86800781 2.17734375 7.30242187 2.6671875 7.75 3.171875 C4.83308475 3.22589195 1.91717276 3.26555566 -1 3.296875 C-1.825 3.31363281 -2.65 3.33039063 -3.5 3.34765625 C-4.29921875 3.35410156 -5.0984375 3.36054688 -5.921875 3.3671875 C-6.6550293 3.37766113 -7.38818359 3.38813477 -8.14355469 3.39892578 C-10.54896076 3.13965044 -12.16251494 2.36413425 -14.25 1.171875 C-9.50309708 0.73537818 -4.75295378 0.36307286 0 0 Z " fill="#DEEFE4" transform="translate(458.25,195.828125)"/>
<path d="M0 0 C0.66 0 1.32 0 2 0 C2.50559908 1.43554025 3.0042749 2.8735202 3.5 4.3125 C3.7784375 5.11300781 4.056875 5.91351563 4.34375 6.73828125 C5 9 5 9 5 12 C4.34 12 3.68 12 3 12 C2.67 11.01 2.34 10.02 2 9 C1.01 10.98 0.02 12.96 -1 15 C-2.20220203 11.46905698 -1.79532349 8.87101018 -1.0625 5.25 C-0.86785156 4.26515625 -0.67320312 3.2803125 -0.47265625 2.265625 C-0.31667969 1.51796875 -0.16070312 0.7703125 0 0 Z " fill="#CAE8F3" transform="translate(462,325)"/>
<path d="M0 0 C2.78159039 1.39079519 2.92225922 2.93712128 4 5.8125 C4.96502601 8.36454143 5.89053421 10.79727223 7.1875 13.19921875 C7.455625 13.79347656 7.72375 14.38773438 8 15 C7.67 15.66 7.34 16.32 7 17 C6.01 16.67 5.02 16.34 4 16 C2.83203125 13.1640625 2.83203125 13.1640625 1.8125 9.625 C1.46832031 8.46226562 1.12414062 7.29953125 0.76953125 6.1015625 C0 3 0 3 0 0 Z " fill="#3A4B80" transform="translate(495,802)"/>
<path d="M0 0 C0.33 0 0.66 0 1 0 C1.23668569 7.03482474 0.7879537 13.1834265 -1 20 C-1.99 19.67 -2.98 19.34 -4 19 C-2.02 9.595 -2.02 9.595 0 0 Z " fill="#5089AC" transform="translate(430,372)"/>
<path d="M0 0 C-0.33 0.99 -0.66 1.98 -1 3 C-1.99 3 -2.98 3 -4 3 C-4.33 3.66 -4.66 4.32 -5 5 C-5.66 5 -6.32 5 -7 5 C-7.66 6.32 -8.32 7.64 -9 9 C-9.66 8.01 -10.32 7.02 -11 6 C-9.90648447 2.82880497 -8.9873012 1.99216457 -6.0625 0.1875 C-3 -1 -3 -1 0 0 Z " fill="#3B90BC" transform="translate(457,256)"/>
<path d="M0 0 C0.33 0 0.66 0 1 0 C1.04254356 1.99954746 1.04080783 4.00041636 1 6 C0.67 6.33 0.34 6.66 0 7 C-0.24420122 9.77665837 -0.38388187 12.55216999 -0.5234375 15.3359375 C-1.04858979 18.27162488 -1.69623147 19.18901618 -4 21 C-3.71681868 18.4363053 -3.42377507 15.87438474 -3.125 13.3125 C-3.04636719 12.59126953 -2.96773438 11.87003906 -2.88671875 11.12695312 C-2.4103949 7.11484068 -1.73699858 3.70024488 0 0 Z " fill="#4F7EA2" transform="translate(446,461)"/>
<path d="M0 0 C0 0.66 0 1.32 0 2 C-3.31371 4.20914 -4.3446021 4.22481553 -8.1875 4.125 C-9.08855469 4.10695312 -9.98960937 4.08890625 -10.91796875 4.0703125 C-11.60503906 4.04710937 -12.29210937 4.02390625 -13 4 C-11 1 -11 1 -8.75 0.3125 C-5.80888507 -0.02171761 -2.95762178 -0.0687819 0 0 Z " fill="#F3F9F2" transform="translate(475,194)"/>
<path d="M0 0 C0.33 0 0.66 0 1 0 C0.67 2.97 0.34 5.94 0 9 C-4.39158329 7.5361389 -4.87947433 5.02168662 -7 1 C-5.5459375 1.0309375 -5.5459375 1.0309375 -4.0625 1.0625 C-1.12534105 1.35618499 -1.12534105 1.35618499 0 0 Z " fill="#78946E" transform="translate(584,447)"/>
<path d="M0 0 C0.66 0.33 1.32 0.66 2 1 C-0.97 8.92 -0.97 8.92 -4 17 C-4.66 15.68 -5.32 14.36 -6 13 C-5.34 12.67 -4.68 12.34 -4 12 C-3.855625 10.9275 -3.71125 9.855 -3.5625 8.75 C-3.0046281 5.03085397 -2.12061593 3.04262285 0 0 Z " fill="#497CA1" transform="translate(440,438)"/>
<path d="M0 0 C0.66 0 1.32 0 2 0 C1.67 1.155 1.34 2.31 1 3.5 C-0.60977014 10.56258306 -0.15893714 17.80367946 0 25 C-0.66 25 -1.32 25 -2 25 C-2.05421223 21.95809137 -2.09377548 18.91716001 -2.125 15.875 C-2.15013672 14.59109375 -2.15013672 14.59109375 -2.17578125 13.28125 C-2.21306681 8.43412707 -1.89580643 4.55292095 0 0 Z " fill="#5E88A7" transform="translate(429,469)"/>
<path d="M0 0 C0.66 0 1.32 0 2 0 C1.27683681 4.37704038 -0.82212757 6.07826139 -4.14453125 8.8046875 C-6.52943543 10.34106788 -8.22522966 10.5045037 -11 10 C-11 9.34 -11 8.68 -11 8 C-9.906875 7.773125 -8.81375 7.54625 -7.6875 7.3125 C-3.8866568 6.34901352 -3.8866568 6.34901352 -2.125 3.4375 C-1.75375 2.633125 -1.3825 1.82875 -1 1 C-0.67 0.67 -0.34 0.34 0 0 Z " fill="#3F4E85" transform="translate(531,897)"/>
<path d="M0 0 C0.66 0 1.32 0 2 0 C1.41157717 2.81666361 0.80525764 5.62726432 0.1875 8.4375 C0.02185547 9.23994141 -0.14378906 10.04238281 -0.31445312 10.86914062 C-0.77699753 12.93749958 -1.37976241 14.97333737 -2 17 C-2.99 17.33 -3.98 17.66 -5 18 C-4.35702496 15.37426939 -3.71075589 12.74942697 -3.0625 10.125 C-2.88009766 9.37863281 -2.69769531 8.63226563 -2.50976562 7.86328125 C-1.11328125 2.2265625 -1.11328125 2.2265625 0 0 Z " fill="#4F8AAB" transform="translate(534,353)"/>
<path d="M0 0 C1.35814777 4.0744433 -0.05254238 6.81468116 -1.4375 10.6875 C-1.68048828 11.38939453 -1.92347656 12.09128906 -2.17382812 12.81445312 C-2.7744944 14.54578532 -3.38619719 16.27328137 -4 18 C-4.33 18 -4.66 18 -5 18 C-5.55709043 11.59346001 -3.7490111 6.76298713 -1 1 C-0.67 0.67 -0.34 0.34 0 0 Z " fill="#4A5986" transform="translate(540,799)"/>
<path d="M0 0 C0.66 0.66 1.32 1.32 2 2 C1.62655279 5.23201584 0.18828083 7.55649103 -1.5625 10.25 C-2.01753906 10.95640625 -2.47257812 11.6628125 -2.94140625 12.390625 C-3.29074219 12.92171875 -3.64007813 13.4528125 -4 14 C-4.66 13.67 -5.32 13.34 -6 13 C-4.31326082 8.50202887 -2.18326108 4.27113698 0 0 Z " fill="#4481A6" transform="translate(468,408)"/>
<path d="M0 0 C2.6855594 2.6855594 3.06049974 5.37621328 4 9 C3.01 9.66 2.02 10.32 1 11 C-0.625 8.3125 -0.625 8.3125 -2 5 C-1.1875 2.125 -1.1875 2.125 0 0 Z " fill="#436D8C" transform="translate(534,399)"/>
<path d="M0 0 C2.62386487 3.06117568 3 3.73173127 3 8 C0.50638429 6.79618552 -1.68143083 5.54571278 -4 4 C-4 3.01 -4 2.02 -4 1 C-2.68 0.67 -1.36 0.34 0 0 Z " fill="#547DA1" transform="translate(431,549)"/>
<path d="M0 0 C0.96035156 0.15339844 1.92070312 0.30679687 2.91015625 0.46484375 C7.40603647 1.10711235 11.90451572 1.33968611 16.4375 1.5625 C17.67790039 1.62727539 17.67790039 1.62727539 18.94335938 1.69335938 C20.96209549 1.79838033 22.98102951 1.89958559 25 2 C25 2.33 25 2.66 25 3 C21.95877308 3.22282257 18.9179572 3.42868018 15.875 3.625 C15.0190625 3.68945312 14.163125 3.75390625 13.28125 3.8203125 C8.36144244 4.12306989 4.6307706 3.98895393 0 2 C0 1.34 0 0.68 0 0 Z " fill="#5F9EBD" transform="translate(499,259)"/>
<path d="M0 0 C-3.3 3.63 -6.6 7.26 -10 11 C-10.66 10.34 -11.32 9.68 -12 9 C-11.38125 8.7525 -10.7625 8.505 -10.125 8.25 C-7.60474173 6.76749514 -6.98768341 5.71612936 -6 3 C-6 2.01 -6 1.02 -6 0 C-4 -1 -4 -1 0 0 Z " fill="#8AA693" transform="translate(526,159)"/>
<path d="M0 0 C0.33 0 0.66 0 1 0 C0.42934122 6.41991126 -1.67344909 12.01589463 -4 18 C-4.33 18 -4.66 18 -5 18 C-5.26252625 13.66831683 -4.29243536 10.1196377 -3 6 C-2.34 6 -1.68 6 -1 6 C-0.67 4.02 -0.34 2.04 0 0 Z " fill="#4E6F95" transform="translate(574,595)"/>
<path d="M0 0 C0.99443769 2.98331306 1.02452065 4.20838759 0.66015625 7.23046875 C0.56669922 8.03291016 0.47324219 8.83535156 0.37695312 9.66210938 C0.27318359 10.49548828 0.16941406 11.32886719 0.0625 12.1875 C-0.03740234 13.03248047 -0.13730469 13.87746094 -0.24023438 14.74804688 C-0.48757108 16.83274197 -0.74301041 18.91647284 -1 21 C-3.35455477 17.46816784 -3.28323356 16.15746406 -3 12 C-2.56286934 9.86118215 -2.06248559 7.73432097 -1.5 5.625 C-1.2215625 4.56539063 -0.943125 3.50578125 -0.65625 2.4140625 C-0.33140625 1.21910156 -0.33140625 1.21910156 0 0 Z " fill="#D0E8F1" transform="translate(418,429)"/>
<path d="M0 0 C0.33 0 0.66 0 1 0 C0.88506243 1.89646998 0.75760358 3.79218332 0.625 5.6875 C0.55539062 6.74324219 0.48578125 7.79898437 0.4140625 8.88671875 C0.01239911 11.90677269 -0.74069019 14.24078054 -2 17 C-2.33 17 -2.66 17 -3 17 C-2.22095672 5.47835991 -2.22095672 5.47835991 0 0 Z " fill="#4A8FB0" transform="translate(438,271)"/>
<path d="M0 0 C0.625 1.875 0.625 1.875 1 4 C0.34 4.66 -0.32 5.32 -1 6 C-1 5.01 -1 4.02 -1 3 C-1.66 3 -2.32 3 -3 3 C-3 3.66 -3 4.32 -3 5 C-5.31 5.66 -7.62 6.32 -10 7 C-10.66 6.34 -11.32 5.68 -12 5 C-10.37750059 4.16180842 -8.75191503 3.3295884 -7.125 2.5 C-6.22007812 2.0359375 -5.31515625 1.571875 -4.3828125 1.09375 C-2 0 -2 0 0 0 Z " fill="#4390B6" transform="translate(557,250)"/>
<path d="M0 0 C0.66 0.33 1.32 0.66 2 1 C1.67 1.70125 1.34 2.4025 1 3.125 C-0.18450576 5.99463305 -0.18450576 5.99463305 0.0625 9.1875 C0.041875 10.115625 0.02125 11.04375 0 12 C-0.99 12.66 -1.98 13.32 -3 14 C-3.29341888 8.32723489 -3.00559652 5.00932754 0 0 Z " fill="#3C4F80" transform="translate(504,876)"/>
<path d="M0 0 C-1.32 0.33 -2.64 0.66 -4 1 C-4 1.66 -4 2.32 -4 3 C-8.17737474 4.59138085 -11.53160785 5.21278058 -16 5 C-13.13879225 3.09252817 -10.64745007 1.99646294 -7.4375 0.8125 C-6.46683594 0.44769531 -5.49617187 0.08289063 -4.49609375 -0.29296875 C-2 -1 -2 -1 0 0 Z " fill="#3E8EB4" transform="translate(545,257)"/>
<path d="M0 0 C0.66 0 1.32 0 2 0 C3.06723961 3.46222615 3.10173486 6.64039266 3.0625 10.25 C3.05347656 11.32765625 3.04445313 12.4053125 3.03515625 13.515625 C3.02355469 14.33546875 3.01195312 15.1553125 3 16 C2.67 16 2.34 16 2 16 C2 13.36 2 10.72 2 8 C1.34 8 0.68 8 0 8 C0 5.36 0 2.72 0 0 Z " fill="#445384" transform="translate(531,880)"/>
<path d="M0 0 C1.5625 1.8125 1.5625 1.8125 3 4 C2.67 4.99 2.34 5.98 2 7 C1.01 6.67 0.02 6.34 -1 6 C-1.33 6.66 -1.66 7.32 -2 8 C-2.66 6.68 -3.32 5.36 -4 4 C-2.68 2.68 -1.36 1.36 0 0 Z " fill="#406F9D" transform="translate(428,544)"/>
<path d="M0 0 C0.33 0.99 0.66 1.98 1 3 C-0.1875 4.5 -0.1875 4.5 -2 6 C-4.6875 6.1875 -4.6875 6.1875 -7 6 C-5.52522876 2.59668175 -4.14385429 0 0 0 Z " fill="#769473" transform="translate(611,543)"/>
<path d="M0 0 C0 2.31 0 4.62 0 7 C0.99 7 1.98 7 3 7 C2.67 7.99 2.34 8.98 2 10 C-0.96404505 7.19195732 -3.44499019 4.81684226 -5 1 C-3 0 -3 0 0 0 Z " fill="#7D9A75" transform="translate(557,417)"/>
<path d="M0 0 C0.99 1.32 1.98 2.64 3 4 C1.1875 7 1.1875 7 -1 10 C-1.99 10 -2.98 10 -4 10 C-2.8905928 6.51329166 -1.73662334 3.22515763 0 0 Z " fill="#4481A7" transform="translate(473,398)"/>
<path d="M0 0 C0.66 1.32 1.32 2.64 2 4 C-2.75 8.875 -2.75 8.875 -5 10 C-4.49701212 5.59885603 -2.91227269 3.28804981 0 0 Z " fill="#87A290" transform="translate(362,190)"/>
<path d="M0 0 C2.96829447 3.3730619 4.06350475 6.62968884 5 11 C4.625 13.4375 4.625 13.4375 4 15 C4 14.01 4 13.02 4 12 C3.34 12 2.68 12 2 12 C2 9.69 2 7.38 2 5 C1.34 5 0.68 5 0 5 C-0.33 4.01 -0.66 3.02 -1 2 C-0.67 1.34 -0.34 0.68 0 0 Z " fill="#9BB475" transform="translate(595,268)"/>
<path d="M0 0 C0.66 0.66 1.32 1.32 2 2 C-0.57784846 4.64752004 -2.91648098 6.94432065 -6 9 C-6.66 8.34 -7.32 7.68 -8 7 C-5.36 4.69 -2.72 2.38 0 0 Z " fill="#87A78D" transform="translate(491,124)"/>
<path d="M0 0 C0.66 0.33 1.32 0.66 2 1 C1.01 4.3 0.02 7.6 -1 11 C-2.32 10.67 -3.64 10.34 -5 10 C-4.34 9.67 -3.68 9.34 -3 9 C-2.09274566 6.88672575 -2.09274566 6.88672575 -1.375 4.4375 C-1.11460937 3.61121094 -0.85421875 2.78492188 -0.5859375 1.93359375 C-0.39257812 1.29550781 -0.19921875 0.65742188 0 0 Z " fill="#3D83AB" transform="translate(557,304)"/>
<path d="M0 0 C3.3 0.99 6.6 1.98 10 3 C9.67 3.66 9.34 4.32 9 5 C5.625 4.75 5.625 4.75 2 4 C1.34 2.68 0.68 1.36 0 0 Z " fill="#3E528E" transform="translate(501,898)"/>
<path d="M0 0 C0.66 0 1.32 0 2 0 C4.12046792 3.53411321 4.53199289 6.94393835 5 11 C4.01 11.495 4.01 11.495 3 12 C2.01 8.04 1.02 4.08 0 0 Z " fill="#406990" transform="translate(449,556)"/>
<path d="M0 0 C-2.31 1.65 -4.62 3.3 -7 5 C-7 4.01 -7 3.02 -7 2 C-7.99 1.67 -8.98 1.34 -10 1 C-5.8922935 -0.58706842 -4.40767604 -1.10191901 0 0 Z " fill="#E1F0E1" transform="translate(407,218)"/>
<path d="M0 0 C0.33 0 0.66 0 1 0 C2.51708428 11.52164009 2.51708428 11.52164009 0 17 C-0.33 17 -0.66 17 -1 17 C-0.67 11.39 -0.34 5.78 0 0 Z " fill="#4D688D" transform="translate(476,680)"/>
<path d="M0 0 C0.99 0.66 1.98 1.32 3 2 C1.35 5.3 -0.3 8.6 -2 12 C-3.01527342 7.93890631 -3.05430484 7.33033162 -1.5625 3.75 C-1.27503906 3.04359375 -0.98757813 2.3371875 -0.69140625 1.609375 C-0.46324219 1.07828125 -0.23507812 0.5471875 0 0 Z " fill="#4A87AC" transform="translate(541,336)"/>
<path d="M0 0 C2.45823172 3.68734758 3.01242616 6.69699971 4 11 C3.34 11 2.68 11 2 11 C1.01 7.7 0.02 4.4 -1 1 C-0.67 0.67 -0.34 0.34 0 0 Z " fill="#3D618D" transform="translate(464,606)"/>
<path d="M0 0 C0.33 0 0.66 0 1 0 C0.67 3.63 0.34 7.26 0 11 C-0.99 11 -1.98 11 -3 11 C-2.01 7.37 -1.02 3.74 0 0 Z " fill="#869B82" transform="translate(605,525)"/>
<path d="M0 0 C2.475 0.495 2.475 0.495 5 1 C4.79375 1.598125 4.5875 2.19625 4.375 2.8125 C3.69328085 5.28450846 3.69328085 5.28450846 6 8 C5.01 8.33 4.02 8.66 3 9 C2.01 6.03 1.02 3.06 0 0 Z " fill="#3F84AB" transform="translate(472,346)"/>
<path d="M0 0 C0.33 0 0.66 0 1 0 C1.33 5.28 1.66 10.56 2 16 C1.34 16 0.68 16 0 16 C-1.16306443 12.45049966 -0.92365049 9.44176052 -0.5625 5.75 C-0.46066406 4.67234375 -0.35882812 3.5946875 -0.25390625 2.484375 C-0.17011719 1.66453125 -0.08632813 0.8446875 0 0 Z " fill="#93AC83" transform="translate(555,372)"/>
<path d="M0 0 C1.98 0.66 3.96 1.32 6 2 C6 2.99 6 3.98 6 5 C4.35 5.33 2.7 5.66 1 6 C0.34 5.01 -0.32 4.02 -1 3 C-0.67 2.01 -0.34 1.02 0 0 Z " fill="#86A189" transform="translate(333,223)"/>
<path d="M0 0 C0 3 0 3 -2.5 5.6875 C-3.325 6.450625 -4.15 7.21375 -5 8 C-5.66 7.34 -6.32 6.68 -7 6 C-4.69 4.02 -2.38 2.04 0 0 Z " fill="#7F9E8B" transform="translate(382,205)"/>
<path d="M0 0 C4.455 0.99 4.455 0.99 9 2 C6.08235 3.9451 4.37462715 4.45276317 1 5 C1.33 3.68 1.66 2.36 2 1 C1.34 0.67 0.68 0.34 0 0 Z " fill="#EFFBF3" transform="translate(400,191)"/>
<path d="M0 0 C1.13643966 3.40931897 0.86747764 4.00335456 -0.4375 7.1875 C-0.72496094 7.90292969 -1.01242187 8.61835937 -1.30859375 9.35546875 C-1.53675781 9.89816406 -1.76492188 10.44085937 -2 11 C-2.66 10.01 -3.32 9.02 -4 8 C-2.68 5.36 -1.36 2.72 0 0 Z " fill="#3F507F" transform="translate(544,787)"/>
<path d="M0 0 C2.42115191 2.42115191 2.60948898 3.64160525 3 7 C2.5625 9.8125 2.5625 9.8125 2 12 C1.67 12 1.34 12 1 12 C0.01751476 7.9472484 -0.08159574 4.16138263 0 0 Z " fill="#40608C" transform="translate(475,644)"/>
<path d="M0 0 C0.33 0 0.66 0 1 0 C0.67 4.29 0.34 8.58 0 13 C-0.33 13 -0.66 13 -1 13 C-1.2236337 11.58566794 -1.42826476 10.16832382 -1.625 8.75 C-1.74101563 7.96109375 -1.85703125 7.1721875 -1.9765625 6.359375 C-2.00319395 3.67847541 -1.36592084 2.27305911 0 0 Z " fill="#557093" transform="translate(559,645)"/>
<path d="M0 0 C0.33 0 0.66 0 1 0 C1.17942163 3.94727588 1.09350689 6.5980513 -1 10 C-1.66 10 -2.32 10 -3 10 C-2.39009109 6.44219804 -1.4216319 3.3171411 0 0 Z " fill="#8CA485" transform="translate(606,491)"/>
<path d="M0 0 C0.95465783 2.16967689 1.14401212 3.56328793 0.3984375 5.82421875 C-0.35870385 7.5684743 -1.17609198 9.28627131 -2 11 C-2.33 11 -2.66 11 -3 11 C-3 9.02 -3 7.04 -3 5 C-2.34 5 -1.68 5 -1 5 C-0.67 3.35 -0.34 1.7 0 0 Z " fill="#43779A" transform="translate(448,415)"/>
<path d="M0 0 C0.66 0.33 1.32 0.66 2 1 C0.515 6.445 0.515 6.445 -1 12 C-1.33 12 -1.66 12 -2 12 C-2 9.36 -2 6.72 -2 4 C-1.34 4 -0.68 4 0 4 C0 2.68 0 1.36 0 0 Z " fill="#E3F5F9" transform="translate(425,388)"/>
<path d="M0 0 C2.31 0.66 4.62 1.32 7 2 C6.34 3.32 5.68 4.64 5 6 C3.2925002 4.71937515 1.62626404 3.38232443 0 2 C0 1.34 0 0.68 0 0 Z " fill="#92A498" transform="translate(380,301)"/>
<path d="M0 0 C1.2065625 0.0309375 1.2065625 0.0309375 2.4375 0.0625 C0.07457344 2.58838702 -1.22712511 3.95070837 -4.5625 5.0625 C-3.43829114 0.08386076 -3.43829114 0.08386076 0 0 Z " fill="#8BA293" transform="translate(501.5625,177.9375)"/>
<path d="M0 0 C0.66 0.33 1.32 0.66 2 1 C0.02 3.31 -1.96 5.62 -4 8 C-4.66 7.34 -5.32 6.68 -6 6 C-5.38125 5.7525 -4.7625 5.505 -4.125 5.25 C-1.64931313 3.79371361 -1.04874998 2.62187494 0 0 Z " fill="#849A82" transform="translate(613,544)"/>
<path d="M0 0 C2 3.75 2 3.75 2 6 C0.35 6.66 -1.3 7.32 -3 8 C-1.125 2.25 -1.125 2.25 0 0 Z " fill="#8DAC73" transform="translate(558,324)"/>
<path d="M0 0 C0.66 0.66 1.32 1.32 2 2 C1.7578125 4.6015625 1.7578125 4.6015625 1.125 7.625 C0.81949219 9.12933594 0.81949219 9.12933594 0.5078125 10.6640625 C0.34023438 11.43492187 0.17265625 12.20578125 0 13 C-0.33 13 -0.66 13 -1 13 C-1.02686553 11.02090602 -1.04633375 9.04171029 -1.0625 7.0625 C-1.07410156 5.96035156 -1.08570313 4.85820312 -1.09765625 3.72265625 C-1 1 -1 1 0 0 Z " fill="#2F7DA2" transform="translate(436,287)"/>
<path d="M0 0 C0.99 0.33 1.98 0.66 3 1 C2.1875 2.9375 2.1875 2.9375 1 5 C0.01 5.33 -0.98 5.66 -2 6 C-1.34 4.02 -0.68 2.04 0 0 Z " fill="#6D927D" transform="translate(436,256)"/>
<path d="M0 0 C-2.97 1.32 -5.94 2.64 -9 4 C-9.33 3.01 -9.66 2.02 -10 1 C-3.375 -1.125 -3.375 -1.125 0 0 Z " fill="#D5E9DA" transform="translate(430,235)"/>
<path d="M0 0 C0.66 0 1.32 0 2 0 C2.99 2.97 3.98 5.94 5 9 C4.01 9.495 4.01 9.495 3 10 C0 3.375 0 3.375 0 0 Z " fill="#455885" transform="translate(481,761)"/>
<path d="M0 0 C1.85776765 3.13498292 2.20140476 5.37471432 2 9 C0.68 7.35 -0.64 5.7 -2 4 C-1.34 2.68 -0.68 1.36 0 0 Z " fill="#95A992" transform="translate(588,458)"/>
<path d="M0 0 C0.474375 0.495 0.94875 0.99 1.4375 1.5 C2.75923698 3.11542197 2.75923698 3.11542197 4 3 C4 4.65 4 6.3 4 8 C3.34 8 2.68 8 2 8 C-0.1519437 4.77208445 -0.20086443 3.71599191 0 0 Z " fill="#2F668C" transform="translate(533,406)"/>
<path d="M0 0 C0.99 0.33 1.98 0.66 3 1 C2.01 1.33 1.02 1.66 0 2 C-0.69937532 3.31647119 -1.36729133 4.65022151 -2 6 C-2.99 6.495 -2.99 6.495 -4 7 C-3.43628586 3.73045798 -2.50037734 2.17424117 0 0 Z " fill="#728D79" transform="translate(420,240)"/>
</svg>
