<svg width="560" height="340" viewBox="0 0 560 340" fill="none" xmlns="http://www.w3.org/2000/svg">
  <defs>
    <linearGradient id="topBody" x1="138" y1="28" x2="428" y2="286" gradientUnits="userSpaceOnUse">
      <stop offset="0" stop-color="#FFF6EE"/>
      <stop offset="0.55" stop-color="#F4DFC8"/>
      <stop offset="1" stop-color="#E5C6AC"/>
    </linearGradient>
    <radialGradient id="topShine" cx="0" cy="0" r="1" gradientUnits="userSpaceOnUse" gradientTransform="translate(220 98) rotate(40) scale(150 120)">
      <stop stop-color="#FFFFFF" stop-opacity="0.95"/>
      <stop offset="1" stop-color="#FFFFFF" stop-opacity="0"/>
    </radialGradient>
  </defs>
  <path d="M280 14C336 64 420 145 420 244C420 287 376 320 280 320C184 320 140 287 140 244C140 145 224 64 280 14Z" fill="url(#topBody)"/>
  <path d="M280 14C336 64 420 145 420 244C420 287 376 320 280 320C184 320 140 287 140 244C140 145 224 64 280 14Z" fill="url(#topShine)"/>
  <ellipse cx="216" cy="184" rx="42" ry="46" fill="#FFFFFF"/>
  <ellipse cx="344" cy="184" rx="42" ry="46" fill="#FFFFFF"/>
  <ellipse cx="224" cy="190" rx="20" ry="24" fill="#5B341D"/>
  <ellipse cx="336" cy="190" rx="20" ry="24" fill="#5B341D"/>
  <ellipse cx="228" cy="186" rx="6" ry="8" fill="#FFFFFF"/>
  <ellipse cx="340" cy="186" rx="6" ry="8" fill="#FFFFFF"/>
  <path d="M200 144C214 134 233 132 248 141" stroke="#D8BAA4" stroke-width="10" stroke-linecap="round"/>
  <path d="M312 141C327 132 346 134 360 144" stroke="#D8BAA4" stroke-width="10" stroke-linecap="round"/>
  <ellipse cx="182" cy="236" rx="22" ry="12" fill="#F6B7B8" fill-opacity="0.45"/>
  <ellipse cx="378" cy="236" rx="22" ry="12" fill="#F6B7B8" fill-opacity="0.45"/>
  <path d="M262 236C271 242 289 242 298 236" stroke="#D98D8D" stroke-width="5" stroke-linecap="round"/>
  <path d="M136 224C116 230 100 244 92 270" stroke="#E9C7AF" stroke-width="18" stroke-linecap="round"/>
  <path d="M424 224C444 230 460 244 468 270" stroke="#E9C7AF" stroke-width="18" stroke-linecap="round"/>
</svg>
