<svg width="420" height="420" viewBox="0 0 420 420" fill="none" xmlns="http://www.w3.org/2000/svg">
  <defs>
    <linearGradient id="leftBody" x1="128" y1="44" x2="338" y2="314" gradientUnits="userSpaceOnUse">
      <stop offset="0" stop-color="#FFF6EE"/>
      <stop offset="0.55" stop-color="#F4DFC8"/>
      <stop offset="1" stop-color="#E5C6AC"/>
    </linearGradient>
    <radialGradient id="leftShine" cx="0" cy="0" r="1" gradientUnits="userSpaceOnUse" gradientTransform="translate(150 116) rotate(30) scale(100 120)">
      <stop stop-color="#FFFFFF" stop-opacity="0.95"/>
      <stop offset="1" stop-color="#FFFFFF" stop-opacity="0"/>
    </radialGradient>
  </defs>
  <path d="M334 30C365 88 386 160 386 232C386 310 329 372 220 372C136 372 84 326 84 262C84 180 146 104 226 30C244 14 323 10 334 30Z" fill="url(#leftBody)"/>
  <path d="M334 30C365 88 386 160 386 232C386 310 329 372 220 372C136 372 84 326 84 262C84 180 146 104 226 30C244 14 323 10 334 30Z" fill="url(#leftShine)"/>
  <ellipse cx="258" cy="210" rx="40" ry="46" fill="#FFFFFF"/>
  <ellipse cx="270" cy="216" rx="18" ry="22" fill="#5B341D"/>
  <ellipse cx="274" cy="212" rx="6" ry="8" fill="#FFFFFF"/>
  <path d="M236 170C250 160 266 159 279 167" stroke="#D8BAA4" stroke-width="10" stroke-linecap="round"/>
  <ellipse cx="204" cy="262" rx="24" ry="13" fill="#F6B7B8" fill-opacity="0.45"/>
  <path d="M236 258C243 263 257 263 264 258" stroke="#D98D8D" stroke-width="5" stroke-linecap="round"/>
  <path d="M128 284C98 286 70 298 48 324" stroke="#CAB598" stroke-width="16" stroke-linecap="round" stroke-dasharray="3 14" stroke-opacity="0.7"/>
</svg>
