<svg width="420" height="420" viewBox="0 0 420 420" fill="none" xmlns="http://www.w3.org/2000/svg">
  <defs>
    <linearGradient id="rightBody" x1="292" y1="44" x2="82" y2="314" gradientUnits="userSpaceOnUse">
      <stop offset="0" stop-color="#FFF6EE"/>
      <stop offset="0.55" stop-color="#F4DFC8"/>
      <stop offset="1" stop-color="#E5C6AC"/>
    </linearGradient>
    <radialGradient id="rightShine" cx="0" cy="0" r="1" gradientUnits="userSpaceOnUse" gradientTransform="translate(272 116) rotate(150) scale(100 120)">
      <stop stop-color="#FFFFFF" stop-opacity="0.95"/>
      <stop offset="1" stop-color="#FFFFFF" stop-opacity="0"/>
    </radialGradient>
  </defs>
  <path d="M86 30C55 88 34 160 34 232C34 310 91 372 200 372C284 372 336 326 336 262C336 180 274 104 194 30C176 14 97 10 86 30Z" fill="url(#rightBody)"/>
  <path d="M86 30C55 88 34 160 34 232C34 310 91 372 200 372C284 372 336 326 336 262C336 180 274 104 194 30C176 14 97 10 86 30Z" fill="url(#rightShine)"/>
  <ellipse cx="162" cy="210" rx="40" ry="46" fill="#FFFFFF"/>
  <ellipse cx="150" cy="216" rx="18" ry="22" fill="#5B341D"/>
  <ellipse cx="146" cy="212" rx="6" ry="8" fill="#FFFFFF"/>
  <path d="M141 167C154 159 170 160 184 170" stroke="#D8BAA4" stroke-width="10" stroke-linecap="round"/>
  <ellipse cx="216" cy="262" rx="24" ry="13" fill="#F6B7B8" fill-opacity="0.45"/>
  <path d="M156 258C163 263 177 263 184 258" stroke="#D98D8D" stroke-width="5" stroke-linecap="round"/>
  <path d="M292 284C322 286 350 298 372 324" stroke="#CAB598" stroke-width="16" stroke-linecap="round" stroke-dasharray="3 14" stroke-opacity="0.7"/>
</svg>
